<?xml version="1.0" encoding="UTF-8" ?>
 <svg viewBox="-0.8333333333333331 -25.30780304092116  101.66666666666663 34.84933347625622" xmlns="http://www.w3.org/2000/svg" version="1.0" overflow="visible">
  <defs>
   <g id="ID__#42_D8">
    <line x1="75" y1="-3.291530435335062" x2="75" y2="-9.541530435335062" id="ID_3FC"/>
    <line x1="100" y1="-3.291530435335062" x2="100" y2="-9.541530435335062" id="ID_3FD"/>
    <line x1="78" y1="-8.291530435335062" x2="97" y2="-8.291530435335062" id="ID_3FE"/>
    <polygon points="78.0,-7.791530435335062 78.0,-8.791530435335062 75.0,-8.291530435335062 75.0,-8.291530435335062 " id="ID_3FF" fill="currentColor"/>
    <polygon points="97.0,-7.791530435335062 97.0,-8.791530435335062 100.0,-8.291530435335062 100.0,-8.291530435335062 " id="ID_400" fill="currentColor"/>
    <text writing-mode="lr-tb" text-anchor="middle" alignment-baseline="middle" x="87.5" y="-6.396066588131787" font-size="2.5" transform="matrix(1 0 0 -1 0 -12.792133176263574)" fill="currentColor" id="ID_401">
     <tspan baseline-shift="-40%" font-style="italic" font-family="Arial" font-size="2.5"/>
     <tspan baseline-shift="-40%" font-style="italic" font-family="Arial" font-size="2.5">d</tspan>
    </text>
   </g>
   <g id="ID__#42_D7">
    <line x1="125" y1="-3.291530435335062" x2="125" y2="-9.541530435335062" id="ID_35C"/>
    <line x1="150" y1="-3.291530435335062" x2="150" y2="-9.541530435335062" id="ID_35D"/>
    <line x1="128" y1="-8.291530435335062" x2="147" y2="-8.291530435335062" id="ID_35E"/>
    <polygon points="128.0,-7.791530435335062 128.0,-8.791530435335062 125.0,-8.291530435335062 125.0,-8.291530435335062 " id="ID_35F" fill="currentColor"/>
    <polygon points="147.0,-7.791530435335062 147.0,-8.791530435335062 150.0,-8.291530435335062 150.0,-8.291530435335062 " id="ID_360" fill="currentColor"/>
    <text writing-mode="lr-tb" text-anchor="middle" alignment-baseline="middle" x="137.5" y="-6.396066588131787" font-size="2.5" transform="matrix(1 0 0 -1 0 -12.792133176263574)" fill="currentColor" id="ID_361">
     <tspan baseline-shift="-40%" font-size="2.5">d</tspan>
    </text>
   </g>
   <g id="ID__#42_Paper_Space"/>
   <g id="ID__#42_D6">
    <line x1="50" y1="-3.291530435335062" x2="50" y2="-9.541530435335062" id="ID_3EA"/>
    <line x1="75" y1="-3.291530435335062" x2="75" y2="-9.541530435335062" id="ID_3EB"/>
    <line x1="53" y1="-8.291530435335062" x2="72" y2="-8.291530435335062" id="ID_3EC"/>
    <polygon points="53.0,-7.791530435335062 53.0,-8.791530435335062 50.0,-8.291530435335062 50.0,-8.291530435335062 " id="ID_3ED" fill="currentColor"/>
    <polygon points="72.0,-7.791530435335062 72.0,-8.791530435335062 75.0,-8.291530435335062 75.0,-8.291530435335062 " id="ID_3EE" fill="currentColor"/>
    <text writing-mode="lr-tb" text-anchor="middle" alignment-baseline="middle" x="62.5" y="-6.396066588131787" font-size="2.5" transform="matrix(1 0 0 -1 0 -12.792133176263574)" fill="currentColor" id="ID_3EF">
     <tspan baseline-shift="-40%" font-style="italic" font-family="Arial" font-size="2.5"/>
     <tspan baseline-shift="-40%" font-style="italic" font-family="Arial" font-size="2.5">d</tspan>
    </text>
   </g>
   <g id="ID__#42_D5">
    <line x1="25" y1="-3.291530435335062" x2="25" y2="-9.541530435335062" id="ID_3D8"/>
    <line x1="50" y1="-3.291530435335062" x2="50" y2="-9.541530435335062" id="ID_3D9"/>
    <line x1="28" y1="-8.291530435335062" x2="47" y2="-8.291530435335062" id="ID_3DA"/>
    <polygon points="28.0,-7.791530435335062 28.0,-8.791530435335062 25.0,-8.291530435335062 25.0,-8.291530435335062 " id="ID_3DB" fill="currentColor"/>
    <polygon points="47.0,-7.791530435335062 47.0,-8.791530435335062 50.0,-8.291530435335062 50.0,-8.291530435335062 " id="ID_3DC" fill="currentColor"/>
    <text writing-mode="lr-tb" text-anchor="middle" alignment-baseline="middle" x="37.5" y="-6.396066588131787" font-size="2.5" transform="matrix(1 0 0 -1 0 -12.792133176263574)" fill="currentColor" id="ID_3DD">
     <tspan baseline-shift="-40%" font-style="italic" font-family="Arial" font-size="2.5"/>
     <tspan baseline-shift="-40%" font-style="italic" font-family="Arial" font-size="2.5">d</tspan>
    </text>
   </g>
   <g id="ID__#42_D4">
    <line x1="-0.0000000000000002" y1="-3.291530435335062" x2="-0.0000000000000006" y2="-9.541530435335062" id="ID_3B4"/>
    <line x1="25" y1="-3.291530435335062" x2="25" y2="-9.541530435335062" id="ID_3B5"/>
    <line x1="2.999999999999999" y1="-8.291530435335062" x2="22" y2="-8.291530435335062" id="ID_3B6"/>
    <polygon points="2.999999999999999,-7.791530435335062 2.999999999999999,-8.791530435335062 -5.0E-16,-8.291530435335062 -5.0E-16,-8.291530435335062 " id="ID_3B7" fill="currentColor"/>
    <polygon points="22.0,-7.791530435335062 22.0,-8.791530435335062 25.0,-8.291530435335062 25.0,-8.291530435335062 " id="ID_3B8" fill="currentColor"/>
    <text writing-mode="lr-tb" text-anchor="middle" alignment-baseline="middle" x="12.5" y="-6.396066588131787" font-size="2.5" transform="matrix(1 0 0 -1 0 -12.792133176263574)" fill="currentColor" id="ID_3B9">
     <tspan baseline-shift="-40%" font-style="italic" font-family="Arial" font-size="2.5"/>
     <tspan baseline-shift="-40%" font-style="italic" font-family="Arial" font-size="2.5">d</tspan>
    </text>
   </g>
   <g id="ID__#42_Model_Space"/>
   <g id="ID__#42_D2">
    <line x1="0.0000000000000012" y1="19.05780304092116" x2="0.0000000000000015" y2="25.30780304092116" id="ID_390"/>
    <line x1="100" y1="19.05780304092116" x2="100" y2="25.30780304092116" id="ID_391"/>
    <line x1="3.000000000000001" y1="24.05780304092116" x2="97" y2="24.05780304092116" id="ID_392"/>
    <polygon points="3.000000000000001,24.55780304092116 3.000000000000001,23.55780304092116 1.5E-15,24.05780304092116 1.5E-15,24.05780304092116 " id="ID_393" fill="currentColor"/>
    <polygon points="97.0,24.55780304092116 97.0,23.55780304092116 100.0,24.05780304092116 100.0,24.05780304092116 " id="ID_394" fill="currentColor"/>
    <text writing-mode="lr-tb" text-anchor="middle" alignment-baseline="middle" x="50.0" y="25.95923551022539" font-size="2.5" transform="matrix(1 0 0 -1 0 51.91847102045078)" fill="currentColor" id="ID_395">
     <tspan baseline-shift="-40%" font-style="italic" font-family="Arial" font-size="2.5"/>
     <tspan baseline-shift="-40%" font-style="italic" font-family="Arial" font-size="2.5">N x 170kN</tspan>
    </text>
   </g>
   <g id="ID__#42_D1">
    <line x1="5.000000000000002" y1="41.08302713027251" x2="95" y2="41.08302713027251" id="ID_2B2"/>
    <polygon points="5.000000000000002,41.91636046360584 5.000000000000002,40.24969379693917 2.5E-15,41.08302713027251 2.5E-15,41.08302713027251 " id="ID_2B3" fill="currentColor"/>
    <polygon points="95.0,41.91636046360584 95.0,40.24969379693917 100.0,41.08302713027251 100.0,41.08302713027251 " id="ID_2B4" fill="currentColor"/>
    <text writing-mode="lr-tb" text-anchor="middle" alignment-baseline="middle" x="50.0" y="42.98445959957674" font-size="2.5" transform="matrix(1 0 0 -1 0 85.96891919915348)" fill="currentColor" id="ID_2B5">
     <tspan baseline-shift="-40%" font-size="2.5">100</tspan>
    </text>
   </g>
   <g id="ID__#42_Paper_Space0"/>
  </defs>
  <g id="draft" transform="matrix(1 0 0 -1 0 0)" stroke-width="0.017064500017865355">
   <g id="Defpoints" color="rgb(0,0,0)" stroke="currentColor" fill="none" stroke-width="0.017064500017865355"/>
   <g id="ID_0" color="rgb(0,0,0)" stroke="currentColor" fill="none" stroke-width="0.17064500017865355">
    <path d="M 100 4.999999999999999 L 100 13.94616097701691 L 100 15.41689329459529 " id="ID_37C"/>
    <path d="M 75 4.999999999999999 L 75 13.94616097701691 L 75 15.41689329459529 " id="ID_37F"/>
    <path d="M 50 4.999999999999999 L 50 13.94616097701691 L 50 15.41689329459529 " id="ID_381"/>
    <path d="M 25 4.999999999999999 L 25 13.94616097701691 L 25 15.41689329459529 " id="ID_383"/>
    <path d="M 0 4.999999999999999 L 0 13.94616097701691 L 0 15.41689329459529 " id="ID_385"/>
    <polygon points="100.8333333333333,4.999999999999999 100.0,0.0 99.16666666666667,4.999999999999999 99.16666666666667,4.999999999999999 " id="ID_37B" fill="currentColor"/>
    <polygon points="75.83333333333333,4.999999999999999 75.0,0.0 74.16666666666667,4.999999999999999 74.16666666666667,4.999999999999999 " id="ID_37E" fill="currentColor"/>
    <polygon points="50.83333333333333,4.999999999999999 50.0,0.0 49.16666666666666,4.999999999999999 49.16666666666666,4.999999999999999 " id="ID_380" fill="currentColor"/>
    <polygon points="25.83333333333333,4.999999999999999 25.0,0.0 24.16666666666667,4.999999999999999 24.16666666666667,4.999999999999999 " id="ID_382" fill="currentColor"/>
    <polygon points="0.8333333333333331,4.999999999999999 0.0,0.0 -0.8333333333333331,4.999999999999999 -0.8333333333333331,4.999999999999999 " id="ID_384" fill="currentColor"/>
    <g transform="translate(0.0 0.0)" id="ID_2B9" stroke-width="0.017064500017865355">
     <use xmlns:xlink="http://www.w3.org/1999/xlink" xlink:href="#ID__#42_D2"/>
    </g>
    <g transform="translate(0.0 0.0)" id="ID_2FB" stroke-width="0.017064500017865355">
     <use xmlns:xlink="http://www.w3.org/1999/xlink" xlink:href="#ID__#42_D4"/>
    </g>
    <g transform="translate(0.0 0.0)" id="ID_323" stroke-width="0.017064500017865355">
     <use xmlns:xlink="http://www.w3.org/1999/xlink" xlink:href="#ID__#42_D5"/>
    </g>
    <g transform="translate(0.0 0.0)" id="ID_339" stroke-width="0.017064500017865355">
     <use xmlns:xlink="http://www.w3.org/1999/xlink" xlink:href="#ID__#42_D6"/>
    </g>
    <g transform="translate(0.0 0.0)" id="ID_365" stroke-width="0.017064500017865355">
     <use xmlns:xlink="http://www.w3.org/1999/xlink" xlink:href="#ID__#42_D8"/>
    </g>
   </g>
  </g>
 </svg>