<?xml version="1.0" encoding="UTF-8" ?>
 <svg viewBox="0 -47.48331992176747  103.0088194638965 47.48331992176747" xmlns="http://www.w3.org/2000/svg" version="1.0" overflow="visible">
  <defs>
   <g id="ID__#42_Model_Space"/>
   <g id="ID__#42_D19">
    <line x1="57.54474203696435" y1="8.401187928440756" x2="57.54474203696435" y2="2.151187928440755" id="ID_6DB"/>
    <line x1="81.27317345022738" y1="8.401187928440756" x2="81.27317345022738" y2="2.151187928440755" id="ID_6DC"/>
    <line x1="60.54474203696436" y1="3.401187928440755" x2="78.27317345022738" y2="3.401187928440755" id="ID_6DD"/>
    <polygon points="60.54474203696436,3.901187928440755 60.54474203696436,2.901187928440755 57.54474203696435,3.401187928440755 57.54474203696435,3.401187928440755 " id="ID_6DE" fill="currentColor"/>
    <polygon points="78.27317345022738,3.901187928440755 78.27317345022738,2.901187928440755 81.27317345022738,3.401187928440755 81.27317345022738,3.401187928440755 " id="ID_6DF" fill="currentColor"/>
    <text writing-mode="lr-tb" text-anchor="middle" alignment-baseline="middle" x="69.40895774359586" y="5.276187928440755" font-size="2.5" transform="matrix(1 0 0 -1 0 10.55237585688151)" fill="currentColor" id="ID_6E0">
     <tspan baseline-shift="-40%" font-style="italic" font-family="Arial" font-size="2.5"/>
     <tspan baseline-shift="-40%" font-style="italic" font-family="Arial" font-size="2.5">D</tspan>
    </text>
   </g>
   <g id="ID__#42_D17">
    <line x1="33.81631062370133" y1="8.401187928440756" x2="33.81631062370133" y2="2.151187928440755" id="ID_6E4"/>
    <line x1="57.54474203696435" y1="8.401187928440756" x2="57.54474203696435" y2="2.151187928440755" id="ID_6E5"/>
    <line x1="36.81631062370133" y1="3.401187928440755" x2="54.54474203696435" y2="3.401187928440755" id="ID_6E6"/>
    <polygon points="36.81631062370133,3.901187928440755 36.81631062370133,2.901187928440755 33.81631062370133,3.401187928440755 33.81631062370133,3.401187928440755 " id="ID_6E7" fill="currentColor"/>
    <polygon points="54.54474203696435,3.901187928440755 54.54474203696435,2.901187928440755 57.54474203696435,3.401187928440755 57.54474203696435,3.401187928440755 " id="ID_6E8" fill="currentColor"/>
    <text writing-mode="lr-tb" text-anchor="middle" alignment-baseline="middle" x="45.68052633033284" y="5.276187928440755" font-size="2.5" transform="matrix(1 0 0 -1 0 10.55237585688151)" fill="currentColor" id="ID_6E9">
     <tspan baseline-shift="-40%" font-style="italic" font-family="Arial" font-size="2.5"/>
     <tspan baseline-shift="-40%" font-style="italic" font-family="Arial" font-size="2.5">D</tspan>
    </text>
   </g>
   <g id="ID__#42_Paper_Space0"/>
   <g id="ID__#42_Paper_Space"/>
   <g id="ID__#42_D16">
    <line x1="78.92043418366363" y1="14.93434824844368" x2="78.92043418366363" y2="8.684348248443683" id="ID_6ED"/>
    <line x1="83.6259127167911" y1="14.93434824844368" x2="83.6259127167911" y2="8.684348248443683" id="ID_6EE"/>
    <line x1="75.92043418366363" y1="9.934348248443683" x2="72.92043418366363" y2="9.934348248443683" id="ID_6EF"/>
    <line x1="86.6259127167911" y1="9.934348248443683" x2="89.6259127167911" y2="9.934348248443683" id="ID_6F0"/>
    <line x1="78.92043418366363" y1="9.934348248443683" x2="83.6259127167911" y2="9.934348248443683" id="ID_6F1"/>
    <polygon points="75.92043418366363,10.43434824844368 75.92043418366363,9.434348248443683 78.92043418366363,9.934348248443683 78.92043418366363,9.934348248443683 " id="ID_6F2" fill="currentColor"/>
    <polygon points="86.6259127167911,10.43434824844368 86.6259127167911,9.434348248443683 83.6259127167911,9.934348248443683 83.6259127167911,9.934348248443683 " id="ID_6F3" fill="currentColor"/>
    <text writing-mode="lr-tb" text-anchor="middle" alignment-baseline="middle" x="81.27317345022738" y="11.82981209564696" font-size="2.5" transform="matrix(1 0 0 -1 0 23.65962419129392)" fill="currentColor" id="ID_6F4">
     <tspan baseline-shift="-40%" font-style="italic" font-family="Arial" font-size="2.5"/>
     <tspan baseline-shift="-40%" font-style="italic" font-family="Arial" font-size="2.5">d</tspan>
    </text>
   </g>
   <g id="ID__#42_D15">
    <line x1="55.19200277040061" y1="14.93434824844368" x2="55.19200277040061" y2="8.684348248443683" id="ID_6F8"/>
    <line x1="59.89748130352808" y1="14.93434824844368" x2="59.89748130352808" y2="8.684348248443683" id="ID_6F9"/>
    <line x1="52.19200277040061" y1="9.934348248443683" x2="49.19200277040062" y2="9.934348248443683" id="ID_6FA"/>
    <line x1="62.89748130352807" y1="9.934348248443683" x2="65.89748130352808" y2="9.934348248443683" id="ID_6FB"/>
    <line x1="55.19200277040061" y1="9.934348248443683" x2="59.89748130352808" y2="9.934348248443683" id="ID_6FC"/>
    <polygon points="52.19200277040061,10.43434824844368 52.19200277040061,9.434348248443683 55.19200277040061,9.934348248443683 55.19200277040061,9.934348248443683 " id="ID_6FD" fill="currentColor"/>
    <polygon points="62.89748130352807,10.43434824844368 62.89748130352807,9.434348248443683 59.89748130352808,9.934348248443683 59.89748130352808,9.934348248443683 " id="ID_6FE" fill="currentColor"/>
    <text writing-mode="lr-tb" text-anchor="middle" alignment-baseline="middle" x="57.54474203696434" y="11.82981209564696" font-size="2.5" transform="matrix(1 0 0 -1 0 23.65962419129392)" fill="currentColor" id="ID_6FF">
     <tspan baseline-shift="-40%" font-style="italic" font-family="Arial" font-size="2.5"/>
     <tspan baseline-shift="-40%" font-style="italic" font-family="Arial" font-size="2.5">d</tspan>
    </text>
   </g>
   <g id="ID__#42_D14">
    <line x1="31.4635713571376" y1="14.93434824844368" x2="31.4635713571376" y2="8.684348248443683" id="ID_703"/>
    <line x1="36.16904989026506" y1="14.93434824844368" x2="36.16904989026506" y2="8.684348248443683" id="ID_704"/>
    <line x1="28.4635713571376" y1="9.934348248443683" x2="25.4635713571376" y2="9.934348248443683" id="ID_705"/>
    <line x1="39.16904989026506" y1="9.934348248443683" x2="42.16904989026505" y2="9.934348248443683" id="ID_706"/>
    <line x1="31.4635713571376" y1="9.934348248443683" x2="36.16904989026506" y2="9.934348248443683" id="ID_707"/>
    <polygon points="28.4635713571376,10.43434824844368 28.4635713571376,9.434348248443683 31.4635713571376,9.934348248443683 31.4635713571376,9.934348248443683 " id="ID_708" fill="currentColor"/>
    <polygon points="39.16904989026506,10.43434824844368 39.16904989026506,9.434348248443683 36.16904989026506,9.934348248443683 36.16904989026506,9.934348248443683 " id="ID_709" fill="currentColor"/>
    <text writing-mode="lr-tb" text-anchor="middle" alignment-baseline="middle" x="33.81631062370133" y="11.82981209564696" font-size="2.5" transform="matrix(1 0 0 -1 0 23.65962419129392)" fill="currentColor" id="ID_70A">
     <tspan baseline-shift="-40%" font-style="italic" font-family="Arial" font-size="2.5"/>
     <tspan baseline-shift="-40%" font-style="italic" font-family="Arial" font-size="2.5">d</tspan>
    </text>
   </g>
  </defs>
  <g id="draft" transform="matrix(1 0 0 -1 0 0)" stroke-width="0.018811517423207996">
   <g id="Defpoints" color="rgb(0,0,0)" stroke="currentColor" fill="none" stroke-width="0.018811517423207996"/>
   <g id="boundingBox" color="rgb(0,0,0)" stroke="currentColor" fill="none" stroke-width="0.0018811517423207996">
    <path d="M 103.0088194638965 47.48331992176747 L 0 47.48331992176747 L 0 0 L 103.0088194638965 0  z" id="ID_66D"/>
   </g>
   <g id="strzalki" color="rgb(0,0,0)" stroke="currentColor" fill="none" stroke-width="0.18811517423207996">
    <path d="M 6.7865622707165 23.22587868377874 L 6.7865622707165 32.17203966079566 L 6.7865622707165 33.64277197837404 " id="ID_4F1"/>
    <path d="M 2.08108373758904 23.22587868377874 L 2.08108373758904 32.17203966079566 L 2.08108373758904 33.64277197837404 " id="ID_4F3"/>
    <path d="M 21.1040366177246 23.22587868377874 L 21.1040366177246 32.17203966079566 L 21.1040366177246 33.64277197837404 " id="ID_4F6"/>
    <path d="M 25.80951515085207 23.22587868377874 L 25.80951515085207 32.17203966079566 L 25.80951515085207 33.64277197837404 " id="ID_4F8"/>
    <path d="M 31.4635713571376 23.22587868377874 L 31.4635713571376 32.17203966079566 L 31.4635713571376 33.64277197837404 " id="ID_4FA"/>
    <path d="M 36.16904989026506 23.22587868377874 L 36.16904989026506 32.17203966079566 L 36.16904989026506 33.64277197837404 " id="ID_4FC"/>
    <path d="M 55.19200277040061 23.22587868377874 L 55.19200277040061 32.17203966079566 L 55.19200277040061 33.64277197837404 " id="ID_503"/>
    <path d="M 59.89748130352808 23.22587868377874 L 59.89748130352808 32.17203966079566 L 59.89748130352808 33.64277197837404 " id="ID_505"/>
    <path d="M 78.92043418366363 23.22587868377874 L 78.92043418366363 32.17203966079566 L 78.92043418366363 33.64277197837404 " id="ID_508"/>
    <path d="M 83.6259127167911 23.22587868377874 L 83.6259127167911 32.17203966079566 L 83.6259127167911 33.64277197837404 " id="ID_50A"/>
    <polygon points="7.619895604049832,23.22587868377874 6.7865622707165,18.22587868377874 5.953228937383169,23.22587868377874 5.953228937383169,23.22587868377874 " id="ID_4F0" fill="currentColor"/>
    <polygon points="2.914417070922373,23.22587868377874 2.08108373758904,18.22587868377874 1.247750404255707,23.22587868377874 1.247750404255707,23.22587868377874 " id="ID_4F2" fill="currentColor"/>
    <polygon points="20.27070328439127,23.22587868377874 21.1040366177246,18.22587868377874 21.93736995105793,23.22587868377874 21.93736995105793,23.22587868377874 " id="ID_4F5" fill="currentColor"/>
    <polygon points="24.97618181751873,23.22587868377874 25.80951515085207,18.22587868377874 26.6428484841854,23.22587868377874 26.6428484841854,23.22587868377874 " id="ID_4F7" fill="currentColor"/>
    <polygon points="30.63023802380426,23.22587868377874 31.4635713571376,18.22587868377874 32.29690469047092,23.22587868377874 32.29690469047092,23.22587868377874 " id="ID_4F9" fill="currentColor"/>
    <polygon points="35.33571655693173,23.22587868377874 36.16904989026506,18.22587868377874 37.00238322359839,23.22587868377874 37.00238322359839,23.22587868377874 " id="ID_4FB" fill="currentColor"/>
    <polygon points="54.35866943706729,23.22587868377874 55.19200277040061,18.22587868377874 56.02533610373394,23.22587868377874 56.02533610373394,23.22587868377874 " id="ID_502" fill="currentColor"/>
    <polygon points="59.06414797019476,23.22587868377874 59.89748130352808,18.22587868377874 60.7308146368614,23.22587868377874 60.7308146368614,23.22587868377874 " id="ID_504" fill="currentColor"/>
    <polygon points="78.08710085033032,23.22587868377874 78.92043418366363,18.22587868377874 79.75376751699697,23.22587868377874 79.75376751699697,23.22587868377874 " id="ID_507" fill="currentColor"/>
    <polygon points="82.79257938345776,23.22587868377874 83.6259127167911,18.22587868377874 84.45924605012443,23.22587868377874 84.45924605012443,23.22587868377874 " id="ID_509" fill="currentColor"/>
   </g>
   <g id="ID_0" color="rgb(0,0,0)" stroke="currentColor" fill="none" stroke-width="0.018811517423207996"/>
   <g id="Wymiary" color="rgb(0,0,0)" stroke="currentColor" fill="none" stroke-width="0.018811517423207996">
    <polygon points="60.66916673387066,42.78368172469988 60.66916673387066,41.78368172469987 57.66916673387068,42.28368172469987 57.66916673387068,42.28368172469987 " id="ID_5A9" fill="currentColor"/>
    <text writing-mode="lr-tb" text-anchor="middle" alignment-baseline="middle" x="79.8129128872767" y="44.18511419400413" font-size="2.5" transform="matrix(1 0 0 -1 0 88.37022838800826)" fill="currentColor" id="ID_5AB">
     <tspan baseline-shift="-40%" font-style="italic" font-family="Arial" font-size="2.5"/>
     <tspan baseline-shift="-40%" font-style="italic" font-family="Arial" font-size="2.5">N x D</tspan>
    </text>
    <g transform="translate(0.0 0.0)" id="ID_4F4" stroke-width="0.018811517423207996">
     <use xmlns:xlink="http://www.w3.org/1999/xlink" xlink:href="#ID__#42_D14"/>
    </g>
    <g transform="translate(0.0 0.0)" id="ID_50C" stroke-width="0.018811517423207996">
     <use xmlns:xlink="http://www.w3.org/1999/xlink" xlink:href="#ID__#42_D15"/>
    </g>
    <g transform="translate(0.0 0.0)" id="ID_50D" stroke-width="0.018811517423207996">
     <use xmlns:xlink="http://www.w3.org/1999/xlink" xlink:href="#ID__#42_D16"/>
    </g>
    <g transform="translate(0.0 0.0)" id="ID_50E" stroke-width="0.018811517423207996">
     <use xmlns:xlink="http://www.w3.org/1999/xlink" xlink:href="#ID__#42_D17"/>
    </g>
    <g transform="translate(0.0 0.0)" id="ID_587" stroke-width="0.018811517423207996">
     <use xmlns:xlink="http://www.w3.org/1999/xlink" xlink:href="#ID__#42_D19"/>
    </g>
    <line x1="57.66916673387068" y1="37.28368172469987" x2="57.66916673387068" y2="43.53368172469987" id="ID_5A6"/>
    <line x1="60.54474203696436" y1="42.2836817246999" x2="102.0229615447535" y2="42.2836817246999" id="ID_5A8"/>
   </g>
  </g>
 </svg>