<?xml version="1.0" encoding="UTF-8" ?>
 <svg viewBox="-0.8333333333333331 -25.30780304092113  100.7752111404978 41.38249379625912" xmlns="http://www.w3.org/2000/svg" version="1.0" overflow="visible">
  <defs>
   <g id="ID__#42_D9">
    <line x1="0" y1="0.625" x2="0.0000000000000015" y2="25.30780304092116" id="ID_48A"/>
    <line x1="100" y1="0.625" x2="100" y2="25.30780304092116" id="ID_48B"/>
    <line x1="2.500000000000001" y1="24.05780304092116" x2="97.5" y2="24.05780304092116" id="ID_48C"/>
    <polygon points="2.500000000000001,24.47446970758783 2.500000000000001,23.64113637425449 1.5E-15,24.05780304092116 1.5E-15,24.05780304092116 " id="ID_48D" fill="currentColor"/>
    <polygon points="97.5,24.47446970758783 97.5,23.64113637425449 100.0,24.05780304092116 100.0,24.05780304092116 " id="ID_48E" fill="currentColor"/>
    <text writing-mode="lr-tb" text-anchor="middle" alignment-baseline="middle" x="50.0" y="25.95923551022539" font-size="2.5" transform="matrix(1 0 0 -1 0 51.91847102045078)" fill="currentColor" id="ID_48F">
     <tspan baseline-shift="-40%" font-style="italic" font-family="Arial" font-size="2.5"/>
     <tspan baseline-shift="-40%" font-style="italic" font-family="Arial" font-size="2.5">N x 170kN</tspan>
    </text>
   </g>
   <g id="ID__#42_D8">
    <line x1="75" y1="-3.291530435335062" x2="75" y2="-9.541530435335062" id="ID_3FC"/>
    <line x1="100" y1="-3.291530435335062" x2="100" y2="-9.541530435335062" id="ID_3FD"/>
    <line x1="78" y1="-8.291530435335062" x2="97" y2="-8.291530435335062" id="ID_3FE"/>
    <polygon points="78.0,-7.791530435335062 78.0,-8.791530435335062 75.0,-8.291530435335062 75.0,-8.291530435335062 " id="ID_3FF" fill="currentColor"/>
    <polygon points="97.0,-7.791530435335062 97.0,-8.791530435335062 100.0,-8.291530435335062 100.0,-8.291530435335062 " id="ID_400" fill="currentColor"/>
    <text writing-mode="lr-tb" text-anchor="middle" alignment-baseline="middle" x="87.5" y="-6.396066588131787" font-size="2.5" transform="matrix(1 0 0 -1 0 -12.792133176263574)" fill="currentColor" id="ID_401">
     <tspan baseline-shift="-40%" font-style="italic" font-family="Arial" font-size="2.5"/>
     <tspan baseline-shift="-40%" font-style="italic" font-family="Arial" font-size="2.5">d</tspan>
    </text>
   </g>
   <g id="ID__#42_D7">
    <line x1="125" y1="-3.291530435335062" x2="125" y2="-9.541530435335062" id="ID_35C"/>
    <line x1="150" y1="-3.291530435335062" x2="150" y2="-9.541530435335062" id="ID_35D"/>
    <line x1="128" y1="-8.291530435335062" x2="147" y2="-8.291530435335062" id="ID_35E"/>
    <polygon points="128.0,-7.791530435335062 128.0,-8.791530435335062 125.0,-8.291530435335062 125.0,-8.291530435335062 " id="ID_35F" fill="currentColor"/>
    <polygon points="147.0,-7.791530435335062 147.0,-8.791530435335062 150.0,-8.291530435335062 150.0,-8.291530435335062 " id="ID_360" fill="currentColor"/>
    <text writing-mode="lr-tb" text-anchor="middle" alignment-baseline="middle" x="137.5" y="-6.396066588131787" font-size="2.5" transform="matrix(1 0 0 -1 0 -12.792133176263574)" fill="currentColor" id="ID_361">
     <tspan baseline-shift="-40%" font-size="2.5">d</tspan>
    </text>
   </g>
   <g id="ID__#42_D6">
    <line x1="50" y1="-3.291530435335062" x2="50" y2="-9.541530435335062" id="ID_3EA"/>
    <line x1="75" y1="-3.291530435335062" x2="75" y2="-9.541530435335062" id="ID_3EB"/>
    <line x1="53" y1="-8.291530435335062" x2="72" y2="-8.291530435335062" id="ID_3EC"/>
    <polygon points="53.0,-7.791530435335062 53.0,-8.791530435335062 50.0,-8.291530435335062 50.0,-8.291530435335062 " id="ID_3ED" fill="currentColor"/>
    <polygon points="72.0,-7.791530435335062 72.0,-8.791530435335062 75.0,-8.291530435335062 75.0,-8.291530435335062 " id="ID_3EE" fill="currentColor"/>
    <text writing-mode="lr-tb" text-anchor="middle" alignment-baseline="middle" x="62.5" y="-6.396066588131787" font-size="2.5" transform="matrix(1 0 0 -1 0 -12.792133176263574)" fill="currentColor" id="ID_3EF">
     <tspan baseline-shift="-40%" font-style="italic" font-family="Arial" font-size="2.5"/>
     <tspan baseline-shift="-40%" font-style="italic" font-family="Arial" font-size="2.5">d</tspan>
    </text>
   </g>
   <g id="ID__#42_D5">
    <line x1="25" y1="-3.291530435335062" x2="25" y2="-9.541530435335062" id="ID_3D8"/>
    <line x1="50" y1="-3.291530435335062" x2="50" y2="-9.541530435335062" id="ID_3D9"/>
    <line x1="28" y1="-8.291530435335062" x2="47" y2="-8.291530435335062" id="ID_3DA"/>
    <polygon points="28.0,-7.791530435335062 28.0,-8.791530435335062 25.0,-8.291530435335062 25.0,-8.291530435335062 " id="ID_3DB" fill="currentColor"/>
    <polygon points="47.0,-7.791530435335062 47.0,-8.791530435335062 50.0,-8.291530435335062 50.0,-8.291530435335062 " id="ID_3DC" fill="currentColor"/>
    <text writing-mode="lr-tb" text-anchor="middle" alignment-baseline="middle" x="37.5" y="-6.396066588131787" font-size="2.5" transform="matrix(1 0 0 -1 0 -12.792133176263574)" fill="currentColor" id="ID_3DD">
     <tspan baseline-shift="-40%" font-style="italic" font-family="Arial" font-size="2.5"/>
     <tspan baseline-shift="-40%" font-style="italic" font-family="Arial" font-size="2.5">d</tspan>
    </text>
   </g>
   <g id="ID__#42_D4">
    <line x1="-0.0000000000000002" y1="-3.291530435335062" x2="-0.0000000000000006" y2="-9.541530435335062" id="ID_3B4"/>
    <line x1="25" y1="-3.291530435335062" x2="25" y2="-9.541530435335062" id="ID_3B5"/>
    <line x1="2.999999999999999" y1="-8.291530435335062" x2="22" y2="-8.291530435335062" id="ID_3B6"/>
    <polygon points="2.999999999999999,-7.791530435335062 2.999999999999999,-8.791530435335062 -5.0E-16,-8.291530435335062 -5.0E-16,-8.291530435335062 " id="ID_3B7" fill="currentColor"/>
    <polygon points="22.0,-7.791530435335062 22.0,-8.791530435335062 25.0,-8.291530435335062 25.0,-8.291530435335062 " id="ID_3B8" fill="currentColor"/>
    <text writing-mode="lr-tb" text-anchor="middle" alignment-baseline="middle" x="12.5" y="-6.396066588131787" font-size="2.5" transform="matrix(1 0 0 -1 0 -12.792133176263574)" fill="currentColor" id="ID_3B9">
     <tspan baseline-shift="-40%" font-style="italic" font-family="Arial" font-size="2.5"/>
     <tspan baseline-shift="-40%" font-style="italic" font-family="Arial" font-size="2.5">d</tspan>
    </text>
   </g>
   <g id="ID__#42_D2">
    <line x1="0.0000000000000012" y1="19.05780304092116" x2="0.0000000000000015" y2="25.30780304092116" id="ID_390"/>
    <line x1="100" y1="19.05780304092116" x2="100" y2="25.30780304092116" id="ID_391"/>
    <line x1="3.000000000000001" y1="24.05780304092116" x2="97" y2="24.05780304092116" id="ID_392"/>
    <polygon points="3.000000000000001,24.55780304092116 3.000000000000001,23.55780304092116 1.5E-15,24.05780304092116 1.5E-15,24.05780304092116 " id="ID_393" fill="currentColor"/>
    <polygon points="97.0,24.55780304092116 97.0,23.55780304092116 100.0,24.05780304092116 100.0,24.05780304092116 " id="ID_394" fill="currentColor"/>
    <text writing-mode="lr-tb" text-anchor="middle" alignment-baseline="middle" x="50.0" y="25.95923551022539" font-size="2.5" transform="matrix(1 0 0 -1 0 51.91847102045078)" fill="currentColor" id="ID_395">
     <tspan baseline-shift="-40%" font-style="italic" font-family="Arial" font-size="2.5"/>
     <tspan baseline-shift="-40%" font-style="italic" font-family="Arial" font-size="2.5">N x 170kN</tspan>
    </text>
   </g>
   <g id="ID__#42_D19">
    <line x1="31.73522688611229" y1="-9.824690755337995" x2="31.73522688611229" y2="-16.07469075533799" id="ID_5C7"/>
    <line x1="55.46365829937531" y1="-9.824690755337995" x2="55.46365829937531" y2="-16.07469075533799" id="ID_5C8"/>
    <line x1="34.73522688611229" y1="-14.82469075533799" x2="52.46365829937531" y2="-14.82469075533799" id="ID_5C9"/>
    <polygon points="34.73522688611229,-14.324690755338 34.73522688611229,-15.32469075533799 31.73522688611229,-14.82469075533799 31.73522688611229,-14.82469075533799 " id="ID_5CA" fill="currentColor"/>
    <polygon points="52.46365829937531,-14.324690755338 52.46365829937531,-15.32469075533799 55.46365829937531,-14.82469075533799 55.46365829937531,-14.82469075533799 " id="ID_5CB" fill="currentColor"/>
    <text writing-mode="lr-tb" text-anchor="middle" alignment-baseline="middle" x="43.5994425927438" y="-12.94969075533799" font-size="2.5" transform="matrix(1 0 0 -1 0 -25.89938151067598)" fill="currentColor" id="ID_5CC">
     <tspan baseline-shift="-40%" font-style="italic" font-family="Arial" font-size="2.5"/>
     <tspan baseline-shift="-40%" font-style="italic" font-family="Arial" font-size="2.5">D</tspan>
    </text>
   </g>
   <g id="ID__#42_D1">
    <line x1="5.000000000000002" y1="41.08302713027251" x2="95" y2="41.08302713027251" id="ID_2B2"/>
    <polygon points="5.000000000000002,41.91636046360584 5.000000000000002,40.24969379693917 2.5E-15,41.08302713027251 2.5E-15,41.08302713027251 " id="ID_2B3" fill="currentColor"/>
    <polygon points="95.0,41.91636046360584 95.0,40.24969379693917 100.0,41.08302713027251 100.0,41.08302713027251 " id="ID_2B4" fill="currentColor"/>
    <text writing-mode="lr-tb" text-anchor="middle" alignment-baseline="middle" x="50.0" y="42.98445959957674" font-size="2.5" transform="matrix(1 0 0 -1 0 85.96891919915348)" fill="currentColor" id="ID_2B5">
     <tspan baseline-shift="-40%" font-size="2.5">100</tspan>
    </text>
   </g>
   <g id="ID__#42_D18">
    <line x1="76.8393504460746" y1="-3.291530435335062" x2="76.8393504460746" y2="-9.541530435335062" id="ID_570"/>
    <line x1="81.54482897920207" y1="-3.291530435335062" x2="81.54482897920207" y2="-9.541530435335062" id="ID_571"/>
    <line x1="73.8393504460746" y1="-8.291530435335062" x2="70.8393504460746" y2="-8.291530435335062" id="ID_572"/>
    <line x1="84.54482897920207" y1="-8.291530435335062" x2="87.54482897920207" y2="-8.291530435335062" id="ID_573"/>
    <line x1="76.8393504460746" y1="-8.291530435335062" x2="81.54482897920207" y2="-8.291530435335062" id="ID_574"/>
    <polygon points="73.8393504460746,-7.791530435335062 73.8393504460746,-8.791530435335062 76.8393504460746,-8.291530435335062 76.8393504460746,-8.291530435335062 " id="ID_575" fill="currentColor"/>
    <polygon points="84.54482897920207,-7.791530435335062 84.54482897920207,-8.791530435335062 81.54482897920207,-8.291530435335062 81.54482897920207,-8.291530435335062 " id="ID_576" fill="currentColor"/>
    <text writing-mode="lr-tb" text-anchor="middle" alignment-baseline="middle" x="79.19208971263834" y="-6.396066588131787" font-size="2.5" transform="matrix(1 0 0 -1 0 -12.792133176263574)" fill="currentColor" id="ID_577">
     <tspan baseline-shift="-40%" font-style="italic" font-family="Arial" font-size="2.5"/>
     <tspan baseline-shift="-40%" font-style="italic" font-family="Arial" font-size="2.5">d</tspan>
    </text>
   </g>
   <g id="ID__#42_D17">
    <line x1="53.11091903281158" y1="-3.291530435335062" x2="53.11091903281158" y2="-9.541530435335062" id="ID_565"/>
    <line x1="57.81639756593904" y1="-3.291530435335062" x2="57.81639756593904" y2="-9.541530435335062" id="ID_566"/>
    <line x1="50.11091903281158" y1="-8.291530435335062" x2="47.11091903281158" y2="-8.291530435335062" id="ID_567"/>
    <line x1="60.81639756593904" y1="-8.291530435335062" x2="63.81639756593904" y2="-8.291530435335062" id="ID_568"/>
    <line x1="53.11091903281158" y1="-8.291530435335062" x2="57.81639756593904" y2="-8.291530435335062" id="ID_569"/>
    <polygon points="50.11091903281158,-7.791530435335062 50.11091903281158,-8.791530435335062 53.11091903281158,-8.291530435335062 53.11091903281158,-8.291530435335062 " id="ID_56A" fill="currentColor"/>
    <polygon points="60.81639756593904,-7.791530435335062 60.81639756593904,-8.791530435335062 57.81639756593904,-8.291530435335062 57.81639756593904,-8.291530435335062 " id="ID_56B" fill="currentColor"/>
    <text writing-mode="lr-tb" text-anchor="middle" alignment-baseline="middle" x="55.46365829937531" y="-6.396066588131787" font-size="2.5" transform="matrix(1 0 0 -1 0 -12.792133176263574)" fill="currentColor" id="ID_56C">
     <tspan baseline-shift="-40%" font-style="italic" font-family="Arial" font-size="2.5"/>
     <tspan baseline-shift="-40%" font-style="italic" font-family="Arial" font-size="2.5">d</tspan>
    </text>
   </g>
   <g id="ID__#42_D16">
    <line x1="29.38248761954856" y1="-3.291530435335062" x2="29.38248761954856" y2="-9.541530435335062" id="ID_55A"/>
    <line x1="34.08796615267602" y1="-3.291530435335062" x2="34.08796615267602" y2="-9.541530435335062" id="ID_55B"/>
    <line x1="26.38248761954856" y1="-8.291530435335062" x2="23.38248761954856" y2="-8.291530435335062" id="ID_55C"/>
    <line x1="37.08796615267602" y1="-8.291530435335062" x2="40.08796615267601" y2="-8.291530435335062" id="ID_55D"/>
    <line x1="29.38248761954856" y1="-8.291530435335062" x2="34.08796615267602" y2="-8.291530435335062" id="ID_55E"/>
    <polygon points="26.38248761954856,-7.791530435335062 26.38248761954856,-8.791530435335062 29.38248761954856,-8.291530435335062 29.38248761954856,-8.291530435335062 " id="ID_55F" fill="currentColor"/>
    <polygon points="37.08796615267602,-7.791530435335062 37.08796615267602,-8.791530435335062 34.08796615267602,-8.291530435335062 34.08796615267602,-8.291530435335062 " id="ID_560" fill="currentColor"/>
    <text writing-mode="lr-tb" text-anchor="middle" alignment-baseline="middle" x="31.73522688611229" y="-6.396066588131787" font-size="2.5" transform="matrix(1 0 0 -1 0 -12.792133176263574)" fill="currentColor" id="ID_561">
     <tspan baseline-shift="-40%" font-style="italic" font-family="Arial" font-size="2.5"/>
     <tspan baseline-shift="-40%" font-style="italic" font-family="Arial" font-size="2.5">d</tspan>
    </text>
   </g>
   <g id="ID__#42_D15">
    <line x1="55.46365829937531" y1="19.05780304092116" x2="55.46365829937531" y2="25.30780304092116" id="ID_59D"/>
    <line x1="100" y1="19.05780304092116" x2="100" y2="25.30780304092116" id="ID_59E"/>
    <line x1="58.46365829937531" y1="24.05780304092116" x2="97" y2="24.05780304092116" id="ID_59F"/>
    <polygon points="58.46365829937531,24.55780304092116 58.46365829937531,23.55780304092116 55.46365829937531,24.05780304092116 55.46365829937531,24.05780304092116 " id="ID_5A0" fill="currentColor"/>
    <polygon points="97.0,24.55780304092116 97.0,23.55780304092116 100.0,24.05780304092116 100.0,24.05780304092116 " id="ID_5A1" fill="currentColor"/>
    <text writing-mode="lr-tb" text-anchor="middle" alignment-baseline="middle" x="77.73182914968766" y="25.95923551022539" font-size="2.5" transform="matrix(1 0 0 -1 0 51.91847102045078)" fill="currentColor" id="ID_5A2">
     <tspan baseline-shift="-40%" font-style="italic" font-family="Arial" font-size="2.5"/>
     <tspan baseline-shift="-40%" font-style="italic" font-family="Arial" font-size="2.5">N x 170kN</tspan>
    </text>
   </g>
   <g id="ID__#42_D13">
    <line x1="31.73522688611229" y1="-0.625" x2="31.73522688611229" y2="-16.07469075533799" id="ID_4C0"/>
    <line x1="55.46365829937531" y1="-0.625" x2="55.46365829937531" y2="-16.07469075533799" id="ID_4C1"/>
    <line x1="34.23522688611229" y1="-14.82469075533799" x2="52.96365829937531" y2="-14.82469075533799" id="ID_4C2"/>
    <polygon points="34.23522688611229,-14.40802408867133 34.23522688611229,-15.24135742200466 31.73522688611229,-14.82469075533799 31.73522688611229,-14.82469075533799 " id="ID_4C3" fill="currentColor"/>
    <polygon points="52.96365829937531,-14.40802408867133 52.96365829937531,-15.24135742200466 55.46365829937531,-14.82469075533799 55.46365829937531,-14.82469075533799 " id="ID_4C4" fill="currentColor"/>
    <text writing-mode="lr-tb" text-anchor="middle" alignment-baseline="middle" x="43.5994425927438" y="-12.94969075533799" font-size="2.5" transform="matrix(1 0 0 -1 0 -25.89938151067598)" fill="currentColor" id="ID_4C5">
     <tspan baseline-shift="-40%" font-style="italic" font-family="Arial" font-size="2.5"/>
     <tspan baseline-shift="-40%" font-style="italic" font-family="Arial" font-size="2.5">D</tspan>
    </text>
   </g>
   <g id="ID__#42_D12">
    <line x1="76.8393504460746" y1="-0.625" x2="76.8393504460746" y2="-9.541530435335062" id="ID_4B2"/>
    <line x1="81.54482897920207" y1="-0.625" x2="81.54482897920207" y2="-9.541530435335062" id="ID_4B3"/>
    <line x1="74.3393504460746" y1="-8.291530435335062" x2="71.8393504460746" y2="-8.291530435335062" id="ID_4B4"/>
    <line x1="84.04482897920207" y1="-8.291530435335062" x2="86.54482897920207" y2="-8.291530435335062" id="ID_4B5"/>
    <line x1="76.8393504460746" y1="-8.291530435335062" x2="81.54482897920207" y2="-8.291530435335062" id="ID_4B6"/>
    <polygon points="74.3393504460746,-7.874863768668395 74.3393504460746,-8.708197102001728 76.8393504460746,-8.291530435335062 76.8393504460746,-8.291530435335062 " id="ID_4B7" fill="currentColor"/>
    <polygon points="84.04482897920207,-7.874863768668395 84.04482897920207,-8.708197102001728 81.54482897920207,-8.291530435335062 81.54482897920207,-8.291530435335062 " id="ID_4B8" fill="currentColor"/>
    <text writing-mode="lr-tb" text-anchor="middle" alignment-baseline="middle" x="79.19208971263834" y="-6.396066588131787" font-size="2.5" transform="matrix(1 0 0 -1 0 -12.792133176263574)" fill="currentColor" id="ID_4B9">
     <tspan baseline-shift="-40%" font-style="italic" font-family="Arial" font-size="2.5"/>
     <tspan baseline-shift="-40%" font-style="italic" font-family="Arial" font-size="2.5">d</tspan>
    </text>
   </g>
   <g id="ID__#42_Paper_Space0"/>
   <g id="ID__#42_D11">
    <line x1="53.11091903281158" y1="-0.625" x2="53.11091903281158" y2="-9.541530435335062" id="ID_4A4"/>
    <line x1="57.81639756593904" y1="-0.625" x2="57.81639756593904" y2="-9.541530435335062" id="ID_4A5"/>
    <line x1="50.61091903281158" y1="-8.291530435335062" x2="48.11091903281158" y2="-8.291530435335062" id="ID_4A6"/>
    <line x1="60.31639756593904" y1="-8.291530435335062" x2="62.81639756593904" y2="-8.291530435335062" id="ID_4A7"/>
    <line x1="53.11091903281158" y1="-8.291530435335062" x2="57.81639756593904" y2="-8.291530435335062" id="ID_4A8"/>
    <polygon points="50.61091903281158,-7.874863768668395 50.61091903281158,-8.708197102001728 53.11091903281158,-8.291530435335062 53.11091903281158,-8.291530435335062 " id="ID_4A9" fill="currentColor"/>
    <polygon points="60.31639756593904,-7.874863768668395 60.31639756593904,-8.708197102001728 57.81639756593904,-8.291530435335062 57.81639756593904,-8.291530435335062 " id="ID_4AA" fill="currentColor"/>
    <text writing-mode="lr-tb" text-anchor="middle" alignment-baseline="middle" x="55.46365829937531" y="-6.396066588131787" font-size="2.5" transform="matrix(1 0 0 -1 0 -12.792133176263574)" fill="currentColor" id="ID_4AB">
     <tspan baseline-shift="-40%" font-style="italic" font-family="Arial" font-size="2.5"/>
     <tspan baseline-shift="-40%" font-style="italic" font-family="Arial" font-size="2.5">d</tspan>
    </text>
   </g>
   <g id="ID__#42_D10">
    <line x1="29.38248761954856" y1="-0.625" x2="29.38248761954856" y2="-9.541530435335062" id="ID_496"/>
    <line x1="34.08796615267602" y1="-0.625" x2="34.08796615267602" y2="-9.541530435335062" id="ID_497"/>
    <line x1="26.88248761954856" y1="-8.291530435335062" x2="24.38248761954856" y2="-8.291530435335062" id="ID_498"/>
    <line x1="36.58796615267602" y1="-8.291530435335062" x2="39.08796615267602" y2="-8.291530435335062" id="ID_499"/>
    <line x1="29.38248761954856" y1="-8.291530435335062" x2="34.08796615267602" y2="-8.291530435335062" id="ID_49A"/>
    <polygon points="26.88248761954856,-7.874863768668395 26.88248761954856,-8.708197102001728 29.38248761954856,-8.291530435335062 29.38248761954856,-8.291530435335062 " id="ID_49B" fill="currentColor"/>
    <polygon points="36.58796615267602,-7.874863768668395 36.58796615267602,-8.708197102001728 34.08796615267602,-8.291530435335062 34.08796615267602,-8.291530435335062 " id="ID_49C" fill="currentColor"/>
    <text writing-mode="lr-tb" text-anchor="middle" alignment-baseline="middle" x="31.73522688611229" y="-6.396066588131787" font-size="2.5" transform="matrix(1 0 0 -1 0 -12.792133176263574)" fill="currentColor" id="ID_49D">
     <tspan baseline-shift="-40%" font-style="italic" font-family="Arial" font-size="2.5"/>
     <tspan baseline-shift="-40%" font-style="italic" font-family="Arial" font-size="2.5">d</tspan>
    </text>
   </g>
   <g id="ID__#42_Model_Space"/>
   <g id="ID__#42_D21">
    <line x1="55.46365829937531" y1="-9.824690755337995" x2="55.46365829937531" y2="-16.07469075533799" id="ID_5D9"/>
    <line x1="79.19208971263834" y1="-9.824690755337995" x2="79.19208971263834" y2="-16.07469075533799" id="ID_5DA"/>
    <line x1="58.46365829937531" y1="-14.82469075533799" x2="76.19208971263834" y2="-14.82469075533799" id="ID_5DB"/>
    <polygon points="58.46365829937531,-14.324690755338 58.46365829937531,-15.32469075533799 55.46365829937531,-14.82469075533799 55.46365829937531,-14.82469075533799 " id="ID_5DC" fill="currentColor"/>
    <polygon points="76.19208971263834,-14.324690755338 76.19208971263834,-15.32469075533799 79.19208971263834,-14.82469075533799 79.19208971263834,-14.82469075533799 " id="ID_5DD" fill="currentColor"/>
    <text writing-mode="lr-tb" text-anchor="middle" alignment-baseline="middle" x="67.32787400600682" y="-12.94969075533799" font-size="2.5" transform="matrix(1 0 0 -1 0 -25.89938151067598)" fill="currentColor" id="ID_5DE">
     <tspan baseline-shift="-40%" font-style="italic" font-family="Arial" font-size="2.5"/>
     <tspan baseline-shift="-40%" font-style="italic" font-family="Arial" font-size="2.5">D</tspan>
    </text>
   </g>
   <g id="_None"/>
   <g id="ID__#42_Paper_Space"/>
  </defs>
  <g id="draft" transform="matrix(1 0 0 -1 0 0)" stroke-width="0.017769713117094615">
   <g id="Defpoints" color="rgb(0,0,0)" stroke="currentColor" fill="none" stroke-width="0.17769713117094615">
    <path d="M 4.705478533127461 4.999999999999999 L 4.705478533127461 13.94616097701691 L 4.705478533127461 15.41689329459529 " id="ID_4F1"/>
    <path d="M 0 4.999999999999999 L 0 13.94616097701691 L 0 15.41689329459529 " id="ID_4F3"/>
    <path d="M 19.02295288013556 4.999999999999999 L 19.02295288013556 13.94616097701691 L 19.02295288013556 15.41689329459529 " id="ID_4F6"/>
    <path d="M 23.72843141326303 4.999999999999999 L 23.72843141326303 13.94616097701691 L 23.72843141326303 15.41689329459529 " id="ID_4F8"/>
    <path d="M 29.38248761954856 4.999999999999999 L 29.38248761954856 13.94616097701691 L 29.38248761954856 15.41689329459529 " id="ID_4FA"/>
    <path d="M 34.08796615267602 4.999999999999999 L 34.08796615267602 13.94616097701691 L 34.08796615267602 15.41689329459529 " id="ID_4FC"/>
    <path d="M 53.11091903281158 4.999999999999999 L 53.11091903281158 13.94616097701691 L 53.11091903281158 15.41689329459529 " id="ID_503"/>
    <path d="M 57.81639756593904 4.999999999999999 L 57.81639756593904 13.94616097701691 L 57.81639756593904 15.41689329459529 " id="ID_505"/>
    <path d="M 76.8393504460746 4.999999999999999 L 76.8393504460746 13.94616097701691 L 76.8393504460746 15.41689329459529 " id="ID_508"/>
    <path d="M 81.54482897920207 4.999999999999999 L 81.54482897920207 13.94616097701691 L 81.54482897920207 15.41689329459529 " id="ID_50A"/>
    <polygon points="5.538811866460793,4.999999999999999 4.705478533127461,0.0 3.872145199794129,4.999999999999999 3.872145199794129,4.999999999999999 " id="ID_4F0" fill="currentColor"/>
    <polygon points="0.8333333333333331,4.999999999999999 0.0,0.0 -0.8333333333333331,4.999999999999999 -0.8333333333333331,4.999999999999999 " id="ID_4F2" fill="currentColor"/>
    <polygon points="18.18961954680223,4.999999999999999 19.02295288013556,0.0 19.85628621346889,4.999999999999999 19.85628621346889,4.999999999999999 " id="ID_4F5" fill="currentColor"/>
    <polygon points="22.89509807992969,4.999999999999999 23.72843141326303,0.0 24.56176474659636,4.999999999999999 24.56176474659636,4.999999999999999 " id="ID_4F7" fill="currentColor"/>
    <polygon points="28.54915428621522,4.999999999999999 29.38248761954856,0.0 30.21582095288189,4.999999999999999 30.21582095288189,4.999999999999999 " id="ID_4F9" fill="currentColor"/>
    <polygon points="33.25463281934269,4.999999999999999 34.08796615267602,0.0 34.92129948600935,4.999999999999999 34.92129948600935,4.999999999999999 " id="ID_4FB" fill="currentColor"/>
    <polygon points="52.27758569947825,4.999999999999999 53.11091903281158,0.0 53.94425236614491,4.999999999999999 53.94425236614491,4.999999999999999 " id="ID_502" fill="currentColor"/>
    <polygon points="56.98306423260572,4.999999999999999 57.81639756593904,0.0 58.64973089927237,4.999999999999999 58.64973089927237,4.999999999999999 " id="ID_504" fill="currentColor"/>
    <polygon points="76.00601711274128,4.999999999999999 76.8393504460746,0.0 77.67268377940793,4.999999999999999 77.67268377940793,4.999999999999999 " id="ID_507" fill="currentColor"/>
    <polygon points="80.71149564586872,4.999999999999999 81.54482897920207,0.0 82.3781623125354,4.999999999999999 82.3781623125354,4.999999999999999 " id="ID_509" fill="currentColor"/>
   </g>
   <g id="ID_0" color="rgb(0,0,0)" stroke="currentColor" fill="none" stroke-width="0.017769713117094615">
    <polygon points="58.58808299628162,24.55780304092113 58.58808299628162,23.55780304092113 55.58808299628163,24.05780304092113 55.58808299628163,24.05780304092113 " id="ID_5A9" fill="currentColor"/>
    <text writing-mode="lr-tb" text-anchor="middle" alignment-baseline="middle" x="77.73182914968766" y="25.95923551022539" font-size="2.5" transform="matrix(1 0 0 -1 0 51.91847102045078)" fill="currentColor" id="ID_5AB">
     <tspan baseline-shift="-40%" font-style="italic" font-family="Arial" font-size="2.5"/>
     <tspan baseline-shift="-40%" font-style="italic" font-family="Arial" font-size="2.5">N x D</tspan>
    </text>
    <g transform="translate(0.0 0.0)" id="ID_4F4" stroke-width="0.017769713117094615">
     <use xmlns:xlink="http://www.w3.org/1999/xlink" xlink:href="#ID__#42_D16"/>
    </g>
    <g transform="translate(0.0 0.0)" id="ID_50C" stroke-width="0.017769713117094615">
     <use xmlns:xlink="http://www.w3.org/1999/xlink" xlink:href="#ID__#42_D17"/>
    </g>
    <g transform="translate(0.0 0.0)" id="ID_50D" stroke-width="0.017769713117094615">
     <use xmlns:xlink="http://www.w3.org/1999/xlink" xlink:href="#ID__#42_D18"/>
    </g>
    <g transform="translate(0.0 0.0)" id="ID_50E" stroke-width="0.017769713117094615">
     <use xmlns:xlink="http://www.w3.org/1999/xlink" xlink:href="#ID__#42_D19"/>
    </g>
    <g transform="translate(0.0 0.0)" id="ID_587" stroke-width="0.017769713117094615">
     <use xmlns:xlink="http://www.w3.org/1999/xlink" xlink:href="#ID__#42_D21"/>
    </g>
    <line x1="55.58808299628163" y1="19.05780304092112" x2="55.58808299628163" y2="25.30780304092113" id="ID_5A6"/>
    <line x1="58.46365829937531" y1="24.05780304092116" x2="99.94187780716447" y2="24.05780304092116" id="ID_5A8"/>
   </g>
  </g>
 </svg>