<svg width="600" height="600" xmlns="http://www.w3.org/2000/svg" xmlns:svg="http://www.w3.org/2000/svg">
  <!-- Created with SVG-edit - http://svg-edit.googlecode.com/ -->
  <defs>
    <marker refY="50" refX="50" markerHeight="5" markerWidth="5" viewBox="0 0 100 100" se_type="mcircle" orient="auto" markerUnits="strokeWidth" id="se_marker_start_svg_7">
      <circle stroke-width="10" stroke="#000000" fill="#000000" cy="50" cx="50" r="30"/>
    </marker>
    <marker refY="50" refX="50" markerHeight="5" markerWidth="5" viewBox="0 0 100 100" se_type="mcircle" orient="auto" markerUnits="strokeWidth" id="se_marker_end_svg_7">
      <circle stroke-width="10" stroke="#000000" fill="#000000" cy="50" cx="50" r="30"/>
    </marker>
    <marker refY="50" refX="50" markerHeight="5" markerWidth="5" viewBox="0 0 100 100" se_type="mcircle" orient="auto" markerUnits="strokeWidth" id="se_marker_mid_svg_7">
      <circle stroke-width="10" stroke="#000000" fill="#000000" cy="50" cx="50" r="30"/>
    </marker>
    <marker refY="50" refX="50" markerHeight="5" markerWidth="5" viewBox="0 0 100 100" se_type="mcircle" orient="auto" markerUnits="strokeWidth" id="se_marker_start_svg_21">
      <circle stroke-width="10" stroke="#000000" fill="#000000" cy="50" cx="50" r="30"/>
    </marker>
  </defs>
  <g>
    <title>Layer 1</title>
    <path marker-end="url(#se_marker_end_svg_7)" marker-mid="url(#se_marker_mid_svg_7)" marker-start="url(#se_marker_start_svg_7)" fill="none" stroke="#000000" stroke-width="13" stroke-dasharray="null" stroke-linejoin="null" stroke-linecap="square" d="m82,416c0,0 200,100 200,100c0,0 200,-100 200,-100c0,0 40,-200 40,-200c0,0 -240,-150 -240,-150c0,0 -100,210 -100,210c0,0 -100,140 -100,140z" id="svg_7"/>
    <line stroke="#000000" fill-opacity="0" id="svg_8" y2="511" x2="283" y1="279" x1="185" stroke-linecap="square" stroke-linejoin="null" stroke-dasharray="null" stroke-width="13" fill="none"/>
    <line stroke="#000000" id="svg_9" y2="410" x2="476" y1="274" x1="182" fill-opacity="0" stroke-linecap="square" stroke-linejoin="null" stroke-dasharray="null" stroke-width="13" fill="none"/>
    <line id="svg_10" y2="407" x2="480" y1="72" x1="284" fill-opacity="0" stroke-linecap="square" stroke-linejoin="null" stroke-dasharray="null" stroke-width="13" stroke="#000000" fill="none"/>
    <line stroke="#000000" id="svg_19" y2="67" x2="88" y1="412" x1="80" fill-opacity="0" stroke-linecap="square" stroke-linejoin="null" stroke-dasharray="null" stroke-width="13" fill="none"/>
    <line stroke="#000000" id="svg_20" y2="68" x2="88" y1="67" x1="273" fill-opacity="0" stroke-linecap="square" stroke-linejoin="null" stroke-dasharray="null" stroke-width="13" fill="none"/>
    <line marker-start="url(#se_marker_start_svg_21)" id="svg_21" y2="267" x2="180" y1="67" x1="89" fill-opacity="0" stroke-linecap="square" stroke-linejoin="null" stroke-dasharray="null" stroke-width="13" stroke="#000000" fill="none"/>
  </g>
</svg>